<svg width="144" height="43" viewBox="0 0 144 43" fill="none" xmlns="http://www.w3.org/2000/svg">
  <path d="M90.975 1.598c.98 1.068 1.471 2.641 1.471 4.726v3.845c0 2.518-.408 4.757-1.227 6.72h-3.43c.742-2.118 1.113-4.357 1.113-6.72V6.347c0-.879-.07-1.564-.207-2.05-.142-.486-.369-.833-.687-1.043-.317-.208-.763-.312-1.332-.312-.572 0-1.017.104-1.332.312-.315.21-.544.557-.685 1.043-.139.486-.207 1.17-.207 2.05v3.799c0 2.347.369 4.594 1.111 6.743h-3.429c-.817-2.008-1.228-4.242-1.228-6.697V6.323c0-2.085.485-3.658 1.459-4.726C83.338.533 84.775 0 86.674 0c1.888.001 3.322.534 4.301 1.598Zm24.908 8.204c.373.716.559 1.53.559 2.44 0 1.612-.562 2.832-1.686 3.658-1.125.83-2.615 1.242-4.469 1.242-1.779 0-3.207-.369-4.285-1.115-1.078-.744-1.619-1.763-1.619-3.056 0-.334.053-.66.16-.979l1.664.206a3.988 3.988 0 0 0-.068.729c0 .926.35 1.602 1.049 2.028.698.425 1.732.638 3.1.638 1.565 0 2.685-.259 3.353-.774.668-.519 1.002-1.376 1.002-2.577 0-1.034-.205-1.831-.614-2.393-.41-.563-1.086-.844-2.027-.844h-.137V7.456h.705c.942 0 1.61-.232 2.008-.694.394-.465.592-1.221.592-2.27 0-1.974-.852-2.961-2.555-2.961-.836 0-1.47.238-1.902.716-.434.48-.648 1.15-.648 2.019v.75c0 1.702-.424 2.963-1.266 3.786-.844.819-2.003 1.229-3.477 1.229-1.398 0-2.539-.414-3.42-1.24-.882-.83-1.322-2.088-1.322-3.775 0-1.702.438-2.961 1.311-3.783.875-.821 2.018-1.23 3.434-1.23 1.883 0 3.15.735 3.806 2.211.334-.805.812-1.376 1.437-1.71.622-.334 1.383-.5 2.28-.5 1.429 0 2.465.436 3.11 1.309.646.876.97 1.959.97 3.247 0 .929-.248 1.751-.742 2.463-.493.714-1.241 1.169-2.243 1.368.919.225 1.569.698 1.94 1.411Zm-8.32-2.153c.494-.569.742-1.447.742-2.633 0-1.214-.248-2.101-.742-2.654-.494-.558-1.25-.832-2.268-.832-1.02 0-1.766.274-2.245.832-.479.553-.718 1.44-.718 2.654 0 1.201.242 2.085.729 2.644.484.564 1.236.845 2.257.845 1.003 0 1.751-.287 2.245-.856ZM127.498.606a4.538 4.538 0 0 1 1.777 1.72c.44.744.659 1.621.659 2.622v7.022c0 1.641-.446 2.915-1.344 3.818-.896.904-2.144 1.355-3.738 1.355-1.004 0-1.884-.197-2.646-.592-.76-.395-1.344-.939-1.754-1.631-.412-.691-.616-1.461-.616-2.312 0-.974.204-1.809.616-2.509l1.595.365a5.833 5.833 0 0 0-.409 2.121c0 1.017.255 1.773.764 2.267.51.495 1.325.742 2.45.742 1.246 0 2.111-.283 2.601-.844.484-.562.729-1.519.729-2.872V5.039c0-1.261-.266-2.159-.799-2.689-.531-.534-1.299-.798-2.301-.798-1.99 0-2.986.895-2.986 2.688 0 .624.098 1.224.296 1.802l-1.663.363c-.289-.574-.434-1.275-.434-2.095 0-.806.219-1.537.66-2.19a4.658 4.658 0 0 1 1.768-1.548 5.058 5.058 0 0 1 2.359-.569c.866 0 1.671.2 2.416.603Zm14.601.876c.858.972 1.288 2.439 1.288 4.401v2.961c0 1.718-.135 3.262-.4 4.628-.266 1.368-.658 2.507-1.174 3.42h-1.756c1.064-1.823 1.596-4.515 1.596-8.07V5.997c0-1.141-.101-2.021-.306-2.645-.206-.625-.541-1.07-1.003-1.335-.465-.264-1.105-.398-1.928-.398-.82 0-1.463.134-1.926.398-.463.265-.799.71-1.004 1.335-.205.624-.307 1.503-.307 2.645v2.825c0 1.672.155 3.22.467 4.64.311 1.421.688 2.564 1.129 3.431h-1.801c-.427-.836-.796-1.988-1.107-3.454-.312-1.466-.465-3-.465-4.594V5.86c0-1.96.434-3.424 1.299-4.389.863-.963 2.104-1.446 3.715-1.446 1.596 0 2.825.486 3.683 1.457ZM8.106 28.344v13.445H4.292V28.344H0v-3.132h12.4v3.132H8.106Zm12.548-3.132c3.451 0 5.176 1.476 5.176 4.43 0 1.06-.242 1.888-.726 2.486-.484.598-1.173.926-2.065.986 1.119.062 1.986.424 2.599 1.091.612.666.92 1.597.92 2.792 0 3.196-1.938 4.792-5.813 4.792h-6.041V25.212h5.95Zm.851 6.574c.28-.113.477-.307.59-.578.112-.272.171-.683.171-1.227 0-.546-.06-.956-.171-1.229a1.042 1.042 0 0 0-.59-.578c-.279-.113-.692-.172-1.236-.172h-1.886v3.952h1.862c.56.002.981-.056 1.26-.168Zm.375 6.96c.333-.122.566-.333.705-.636.137-.305.205-.749.205-1.34 0-.592-.068-1.037-.205-1.342-.138-.303-.377-.514-.715-.635-.341-.119-.839-.183-1.489-.183h-1.999v4.313h1.999c.666.003 1.167-.056 1.499-.177Zm8.492 1.157c-1.256-1.407-1.884-3.533-1.884-6.381 0-5.691 2.522-8.538 7.56-8.538 1.288 0 2.454.181 3.499.544l-.704 3.043c-.712-.378-1.567-.566-2.565-.566-1.076 0-1.89.155-2.442.465-.553.312-.941.855-1.167 1.636-.228.78-.342 1.92-.342 3.418 0 1.483.11 2.608.33 3.373.22.765.607 1.298 1.159 1.601.553.303 1.352.454 2.396.454 1.18 0 2.172-.233 2.974-.704l.685 3.111c-1.106.439-2.38.66-3.818.66-2.532-.002-4.424-.708-5.681-2.116ZM17.837 1.554c.863 1.034 1.296 2.548 1.296 4.539v4.078c0 2.515-.408 4.754-1.228 6.719h-3.382c.744-2.118 1.112-4.357 1.112-6.719V6.117c0-1.159-.149-1.977-.45-2.455-.302-.48-.816-.719-1.542-.719-.741 0-1.265.243-1.574.729-.309.486-.463 1.301-.463 2.444v4.702c0 2.099-.49 3.68-1.47 4.737-.983 1.057-2.437 1.587-4.366 1.587-1.9 0-3.336-.534-4.31-1.598C.487 14.478.002 12.903.002 10.818V6.323c0-2.067.471-3.641 1.411-4.712C2.356.536 3.73 0 5.538 0c1.095 0 2.005.208 2.733.625A3.397 3.397 0 0 1 9.8 2.455c.417-.847.969-1.47 1.654-1.865C12.142.195 13.01 0 14.061 0c1.651.001 2.911.519 3.776 1.554ZM8.108 6.348c0-.879-.074-1.564-.221-2.05-.147-.486-.386-.833-.718-1.042-.331-.209-.799-.313-1.4-.313-.574 0-1.017.104-1.334.313-.316.208-.543.556-.683 1.042-.138.486-.208 1.17-.208 2.05v4.448c0 .881.069 1.562.208 2.05.14.485.367.834.683 1.042.317.21.76.312 1.334.312.601 0 1.069-.103 1.4-.312.332-.208.571-.557.718-1.042.147-.488.221-1.169.221-2.05V6.348Zm24.355-4.75c.982 1.068 1.47 2.641 1.47 4.726v3.845c0 2.518-.407 4.757-1.227 6.72h-3.427c.742-2.118 1.113-4.357 1.113-6.72V6.347c0-.879-.071-1.564-.21-2.05-.14-.486-.368-.833-.682-1.043-.318-.208-.763-.312-1.334-.312-.571 0-1.015.104-1.333.312-.316.21-.542.557-.682 1.043-.14.486-.21 1.17-.21 2.05v3.799c0 2.347.373 4.594 1.113 6.743h-3.427c-.82-2.008-1.23-4.242-1.23-6.697V6.323c0-2.085.487-3.658 1.46-4.726C24.83.533 26.265 0 28.165 0c1.886.001 3.318.534 4.298 1.598Zm15.903 10.1c0 3.628-1.938 5.443-5.813 5.443-3.858 0-5.79-1.815-5.79-5.443 0-3.18 1.466-4.979 4.4-5.396v-.928c0-.354-.098-.652-.291-.891-.192-.241-.528-.561-1.008-.962a6.272 6.272 0 0 1-.683-.648 2.109 2.109 0 0 1-.372-.683c-.1-.288-.15-.668-.15-1.146V.257h3.592v.368c0 .325.082.593.244.8.16.21.44.475.847.8.478.371.825.746 1.043 1.123.215.378.323.877.323 1.495v1.599c2.438.6 3.658 2.355 3.658 5.256Zm-4.09 1.97c.365-.417.547-1.081.547-1.991 0-.913-.182-1.577-.547-1.993-.361-.417-.945-.627-1.746-.627-.771 0-1.336.21-1.692.627-.354.416-.531 1.08-.531 1.993 0 .91.183 1.573.544 1.991.362.418.932.625 1.702.625.787-.001 1.36-.207 1.723-.625Zm17.095-12.07c.979 1.068 1.471 2.641 1.471 4.726v3.845c0 2.518-.408 4.757-1.227 6.72h-3.431c.744-2.118 1.113-4.357 1.113-6.72V6.347c0-.879-.069-1.564-.208-2.05-.141-.486-.368-.833-.686-1.043-.316-.208-.762-.312-1.332-.312-.572 0-1.014.104-1.332.312-.315.21-.543.557-.684 1.043-.137.486-.207 1.17-.207 2.05v3.799c0 2.347.369 4.594 1.111 6.743h-3.428c-.818-2.008-1.229-4.242-1.229-6.697V6.323c0-2.085.487-3.658 1.46-4.726C53.735.533 55.171 0 57.071 0c1.888.001 3.322.534 4.3 1.598ZM66.11.257h3.545v11.396c0 .926.191 1.598.578 2.014.387.42 1.012.627 1.875.627.864 0 1.492-.204 1.879-.613.383-.409.578-1.078.578-2.003 0-.388-.06-.741-.175-1.066a10.666 10.666 0 0 0-.522-1.181 10.804 10.804 0 0 1-.61-1.448c-.134-.409-.198-.884-.198-1.425v-.347h3.544c.015.447.08.848.198 1.206.113.354.296.802.542 1.341.265.618.455 1.124.58 1.518.123.394.187.87.187 1.424 0 3.63-2 5.443-6 5.443-3.998 0-5.998-1.822-5.998-5.465V.257h-.003Zm-7.221 29.927c0 3.33-1.619 4.996-4.859 4.996h-3.246v6.608h-1.795V25.21h5.062c3.227 0 4.838 1.66 4.838 4.974Zm-2.975 3.147c.453-.205.774-.549.965-1.033.189-.483.283-1.188.283-2.112 0-.925-.094-1.63-.283-2.111a1.81 1.81 0 0 0-.965-1.035c-.454-.202-1.104-.307-1.953-.307h-3.178v6.905h3.155c.862-.001 1.522-.105 1.976-.307Zm6.289 4.437-1.361 4.021h-1.908l5.949-16.579h1.705l5.949 16.579h-1.955l-1.338-4.021h-7.041Zm3.522-10.469-3.021 8.949h6.02l-2.999-8.949Zm5.904-2.089h2.02l4.269 8.334 4.27-8.334h1.953l-5.427 10.129v6.451h-1.658v-6.451L71.629 25.21Z" fill="#000"/>
</svg>
