<?xml version="1.0" encoding="utf-8"?>
<!-- Generator: Adobe Illustrator 16.0.0, SVG Export Plug-In . SVG Version: 6.00 Build 0)  -->
<!DOCTYPE svg PUBLIC "-//W3C//DTD SVG 1.1//EN" "http://www.w3.org/Graphics/SVG/1.1/DTD/svg11.dtd">
<svg version="1.1" id="Layer_1" xmlns="http://www.w3.org/2000/svg" xmlns:xlink="http://www.w3.org/1999/xlink" x="0px" y="0px"
	 width="220px" height="60px" viewBox="0 0 220 60" enable-background="new 0 0 220 60" xml:space="preserve">
<path fill="#FFFFFF" d="M29.334,32.84c0.259,2.689,0.395,4.092-1.788,6.395c-2.257,2.38-7.946,6.789-13.771,10.152
	c-2.445,1.41-5.759,3.123-8.274,4.037c-1.864,0.674-3.432,0.955-4.21-0.393c-0.503-0.869-0.257-1.668,0.007-2.375
	c2.024-5.489,7.86-15.73,11.66-22.396c0.389-0.68,0.788-1.378,1.199-2.086c5.85-10.097,13.61-22.456,15.135-24.438
	c0.221-0.287,0.621-0.623,0.994-0.404c0.302,0.174,0.304,0.539,0.262,0.786c-0.006,0.043-0.098,0.406-0.131,0.548
	C27.9,12.869,28.172,22.869,29.334,32.84"/>
<path fill="#FFFFFF" d="M37.88,35.984c-2.46-1.123-3.74-1.705-4.644-4.746c-0.932-3.145-1.907-10.276-1.907-17.002
	c0-2.823,0.175-6.549,0.642-9.184c0.349-1.951,0.887-3.45,2.445-3.45c1.004,0,1.572,0.611,2.052,1.192
	c3.741,4.499,9.694,14.673,13.566,21.295c0.396,0.679,0.799,1.374,1.207,2.083c5.82,10.113,12.644,23.014,13.595,25.326
	c0.139,0.334,0.229,0.848-0.144,1.062c-0.303,0.172-0.619-0.006-0.812-0.166c-0.034-0.029-0.303-0.289-0.41-0.39
	C55.891,44.727,47.096,39.961,37.88,35.984"/>
<path fill="#FFFFFF" d="M30.885,41.812c2.201-1.568,3.345-2.39,6.432-1.648c3.188,0.766,9.853,3.486,15.675,6.85
	c2.446,1.412,5.586,3.428,7.634,5.146c1.515,1.279,2.544,2.494,1.765,3.844c-0.502,0.868-1.315,1.057-2.06,1.18
	c-5.765,0.99-17.552,1.062-25.224,1.103c-0.786,0.004-1.588,0.006-2.408,0.005C21.031,58.271,6.448,57.73,3.968,57.4
	c-0.358-0.047-0.847-0.227-0.847-0.656c0.001-0.348,0.314-0.533,0.549-0.621c0.044-0.016,0.401-0.117,0.542-0.158
	C14.307,53.039,22.831,47.807,30.885,41.812"/>
<polygon fill="#FFFFFF" points="83.719,36.691 83.719,50.136 79.905,50.136 79.905,36.691 75.613,36.691 75.613,33.559 
	88.013,33.559 88.013,36.691 "/>
<path fill="#FFFFFF" d="M96.267,33.559c3.451,0,5.176,1.476,5.176,4.43c0,1.06-0.242,1.888-0.726,2.486
	c-0.484,0.598-1.173,0.926-2.065,0.986c1.119,0.062,1.986,0.424,2.599,1.091c0.612,0.666,0.92,1.597,0.92,2.792
	c0,3.196-1.938,4.792-5.813,4.792h-6.041V33.559H96.267z M97.118,40.133c0.28-0.113,0.477-0.307,0.59-0.578
	c0.112-0.272,0.171-0.683,0.171-1.227c0-0.546-0.06-0.956-0.171-1.229c-0.114-0.271-0.311-0.464-0.59-0.578
	c-0.279-0.113-0.692-0.172-1.236-0.172h-1.886v3.952h1.862C96.418,40.303,96.839,40.245,97.118,40.133 M97.493,47.093
	c0.333-0.122,0.566-0.333,0.705-0.636c0.137-0.305,0.205-0.749,0.205-1.34c0-0.592-0.068-1.037-0.205-1.342
	c-0.138-0.303-0.377-0.514-0.715-0.635c-0.341-0.119-0.839-0.183-1.489-0.183h-1.999v4.313h1.999
	C96.66,47.273,97.161,47.214,97.493,47.093"/>
<path fill="#FFFFFF" d="M105.985,48.25c-1.256-1.407-1.884-3.533-1.884-6.381c0-5.691,2.522-8.538,7.56-8.538
	c1.288,0,2.454,0.181,3.499,0.544l-0.704,3.043c-0.712-0.378-1.567-0.566-2.565-0.566c-1.076,0-1.89,0.155-2.442,0.465
	c-0.553,0.312-0.941,0.855-1.167,1.636c-0.228,0.78-0.342,1.92-0.342,3.418c0,1.483,0.111,2.608,0.33,3.373
	c0.22,0.765,0.607,1.298,1.159,1.601c0.553,0.303,1.352,0.454,2.396,0.454c1.18,0,2.172-0.233,2.974-0.704l0.685,3.111
	c-1.106,0.439-2.379,0.66-3.818,0.66C109.134,50.364,107.242,49.658,105.985,48.25"/>
<path fill="#FFFFFF" d="M93.45,9.901c0.863,1.034,1.296,2.548,1.296,4.539v4.078c0,2.515-0.408,4.754-1.228,6.719h-3.382
	c0.744-2.118,1.112-4.357,1.112-6.719v-4.054c0-1.159-0.149-1.977-0.45-2.455c-0.302-0.48-0.816-0.719-1.542-0.719
	c-0.741,0-1.265,0.243-1.574,0.729s-0.463,1.301-0.463,2.444v4.702c0,2.099-0.49,3.68-1.47,4.737
	c-0.983,1.057-2.437,1.587-4.366,1.587c-1.9,0-3.336-0.534-4.31-1.598c-0.973-1.066-1.458-2.641-1.458-4.726V14.67
	c0-2.067,0.471-3.641,1.411-4.712c0.943-1.075,2.317-1.611,4.125-1.611c1.095,0,2.005,0.208,2.733,0.625
	c0.726,0.418,1.234,1.029,1.529,1.83c0.417-0.847,0.969-1.47,1.654-1.865c0.688-0.395,1.556-0.59,2.607-0.59
	C91.325,8.348,92.585,8.866,93.45,9.901 M83.721,14.695c0-0.879-0.074-1.564-0.221-2.05s-0.386-0.833-0.718-1.042
	c-0.331-0.209-0.799-0.313-1.4-0.313c-0.574,0-1.017,0.104-1.334,0.313c-0.316,0.208-0.543,0.556-0.683,1.042
	c-0.138,0.486-0.208,1.17-0.208,2.05v4.448c0,0.881,0.069,1.562,0.208,2.05c0.14,0.485,0.367,0.834,0.683,1.042
	c0.317,0.21,0.76,0.312,1.334,0.312c0.601,0,1.069-0.103,1.4-0.312c0.332-0.208,0.571-0.557,0.718-1.042
	c0.147-0.488,0.221-1.169,0.221-2.05V14.695z"/>
<path fill="#FFFFFF" d="M108.076,9.945c0.982,1.068,1.471,2.641,1.471,4.726v3.845c0,2.518-0.408,4.757-1.228,6.72h-3.427
	c0.742-2.118,1.113-4.357,1.113-6.72v-3.822c0-0.879-0.071-1.564-0.21-2.05c-0.14-0.486-0.368-0.833-0.682-1.043
	c-0.318-0.208-0.763-0.312-1.334-0.312c-0.571,0-1.015,0.104-1.333,0.312c-0.316,0.21-0.542,0.557-0.682,1.043
	c-0.139,0.486-0.209,1.17-0.209,2.05v3.799c0,2.347,0.372,4.594,1.112,6.743H99.24c-0.82-2.008-1.229-4.242-1.229-6.697V14.67
	c0-2.085,0.486-3.658,1.459-4.726c0.974-1.064,2.408-1.597,4.308-1.597C105.664,8.348,107.096,8.881,108.076,9.945"/>
<path fill="#FFFFFF" d="M123.979,20.045c0,3.628-1.938,5.443-5.813,5.443c-3.858,0-5.789-1.815-5.789-5.443
	c0-3.18,1.465-4.979,4.399-5.396v-0.928c0-0.354-0.098-0.652-0.291-0.891c-0.192-0.241-0.528-0.561-1.008-0.962
	c-0.31-0.262-0.535-0.476-0.683-0.648c-0.147-0.17-0.271-0.397-0.372-0.683c-0.1-0.288-0.15-0.668-0.15-1.146V8.604h3.592v0.368
	c0,0.325,0.082,0.593,0.244,0.8c0.16,0.21,0.441,0.475,0.847,0.8c0.478,0.371,0.825,0.746,1.043,1.123
	c0.215,0.378,0.323,0.877,0.323,1.495v1.599C122.759,15.389,123.979,17.144,123.979,20.045 M119.889,22.015
	c0.365-0.417,0.547-1.081,0.547-1.991c0-0.913-0.182-1.577-0.547-1.993c-0.361-0.417-0.945-0.627-1.746-0.627
	c-0.771,0-1.336,0.21-1.692,0.627c-0.354,0.416-0.531,1.08-0.531,1.993c0,0.91,0.183,1.573,0.544,1.991
	c0.362,0.418,0.932,0.625,1.702,0.625C118.953,22.639,119.527,22.433,119.889,22.015"/>
<path fill="#FFFFFF" d="M136.984,9.945c0.979,1.068,1.471,2.641,1.471,4.726v3.845c0,2.518-0.408,4.757-1.227,6.72h-3.431
	c0.744-2.118,1.113-4.357,1.113-6.72v-3.822c0-0.879-0.069-1.564-0.208-2.05c-0.141-0.486-0.368-0.833-0.686-1.043
	c-0.316-0.208-0.762-0.312-1.332-0.312c-0.572,0-1.014,0.104-1.332,0.312c-0.315,0.21-0.543,0.557-0.684,1.043
	c-0.137,0.486-0.207,1.17-0.207,2.05v3.799c0,2.347,0.369,4.594,1.111,6.743h-3.428c-0.818-2.008-1.229-4.242-1.229-6.697V14.67
	c0-2.085,0.487-3.658,1.46-4.726c0.973-1.064,2.409-1.597,4.309-1.597C134.572,8.348,136.006,8.881,136.984,9.945"/>
<path fill="#FFFFFF" d="M141.723,8.604h3.545V20c0,0.926,0.191,1.598,0.578,2.014c0.387,0.42,1.012,0.627,1.875,0.627
	c0.864,0,1.492-0.204,1.879-0.613c0.383-0.409,0.578-1.078,0.578-2.003c0-0.388-0.06-0.741-0.175-1.066
	c-0.116-0.325-0.289-0.719-0.522-1.181c-0.274-0.556-0.48-1.039-0.61-1.448c-0.134-0.409-0.198-0.884-0.198-1.425v-0.347h3.544
	c0.015,0.447,0.08,0.848,0.198,1.206c0.113,0.354,0.296,0.802,0.542,1.341c0.265,0.618,0.455,1.124,0.58,1.518
	c0.123,0.394,0.187,0.87,0.187,1.424c0,3.63-2,5.443-6,5.443c-3.998,0-5.998-1.822-5.998-5.465V8.604H141.723z"/>
<path fill="#FFFFFF" d="M166.588,9.945c0.98,1.068,1.471,2.641,1.471,4.726v3.845c0,2.518-0.408,4.757-1.227,6.72h-3.43
	c0.742-2.118,1.113-4.357,1.113-6.72v-3.822c0-0.879-0.07-1.564-0.207-2.05c-0.142-0.486-0.369-0.833-0.687-1.043
	c-0.317-0.208-0.763-0.312-1.332-0.312c-0.572,0-1.017,0.104-1.332,0.312c-0.315,0.21-0.544,0.557-0.685,1.043
	c-0.139,0.486-0.207,1.17-0.207,2.05v3.799c0,2.347,0.369,4.594,1.111,6.743h-3.429c-0.817-2.008-1.228-4.242-1.228-6.697V14.67
	c0-2.085,0.485-3.658,1.459-4.726c0.973-1.064,2.41-1.597,4.309-1.597C164.175,8.348,165.609,8.881,166.588,9.945"/>
<path fill="#FFFFFF" d="M191.496,18.149c0.373,0.716,0.559,1.53,0.559,2.44c0,1.612-0.562,2.832-1.686,3.658
	c-1.125,0.83-2.615,1.242-4.469,1.242c-1.779,0-3.207-0.369-4.285-1.115c-1.078-0.744-1.619-1.763-1.619-3.056
	c0-0.334,0.053-0.66,0.16-0.979l1.664,0.206c-0.045,0.242-0.068,0.486-0.068,0.729c0,0.926,0.35,1.602,1.049,2.028
	c0.698,0.425,1.732,0.638,3.1,0.638c1.565,0,2.685-0.259,3.353-0.774c0.668-0.519,1.002-1.376,1.002-2.577
	c0-1.034-0.205-1.831-0.614-2.393c-0.41-0.563-1.086-0.844-2.027-0.844h-0.137v-1.549h0.705c0.942,0,1.61-0.232,2.008-0.694
	c0.394-0.465,0.592-1.221,0.592-2.27c0-1.974-0.852-2.961-2.555-2.961c-0.836,0-1.47,0.238-1.902,0.716
	c-0.434,0.48-0.648,1.15-0.648,2.019v0.75c0,1.702-0.424,2.963-1.266,3.786c-0.844,0.819-2.003,1.229-3.477,1.229
	c-1.398,0-2.539-0.414-3.42-1.24c-0.882-0.83-1.322-2.088-1.322-3.775c0-1.702,0.438-2.961,1.311-3.783
	c0.875-0.821,2.018-1.23,3.434-1.23c1.883,0,3.15,0.735,3.806,2.211c0.334-0.805,0.812-1.376,1.437-1.71
	c0.622-0.334,1.383-0.5,2.28-0.5c1.429,0,2.465,0.436,3.11,1.309c0.646,0.876,0.97,1.959,0.97,3.247
	c0,0.929-0.248,1.751-0.742,2.463c-0.493,0.714-1.241,1.169-2.243,1.368C190.475,16.963,191.125,17.436,191.496,18.149
	 M183.176,15.996c0.494-0.569,0.742-1.447,0.742-2.633c0-1.214-0.248-2.101-0.742-2.654c-0.494-0.558-1.25-0.832-2.268-0.832
	c-1.02,0-1.766,0.274-2.245,0.832c-0.479,0.553-0.718,1.44-0.718,2.654c0,1.201,0.242,2.085,0.729,2.644
	c0.484,0.564,1.236,0.845,2.257,0.845C181.934,16.852,182.682,16.565,183.176,15.996"/>
<path fill="#FFFFFF" d="M203.111,8.953c0.744,0.402,1.338,0.976,1.777,1.72c0.44,0.744,0.659,1.621,0.659,2.622v7.022
	c0,1.641-0.446,2.915-1.344,3.818c-0.896,0.904-2.144,1.355-3.738,1.355c-1.004,0-1.884-0.197-2.646-0.592
	c-0.76-0.395-1.344-0.939-1.754-1.631c-0.412-0.691-0.616-1.461-0.616-2.312c0-0.974,0.204-1.809,0.616-2.509l1.595,0.365
	c-0.271,0.699-0.409,1.407-0.409,2.121c0,1.017,0.255,1.773,0.764,2.267c0.51,0.495,1.325,0.742,2.45,0.742
	c1.246,0,2.111-0.283,2.601-0.844c0.484-0.562,0.729-1.519,0.729-2.872v-6.839c0-1.261-0.266-2.159-0.799-2.689
	c-0.531-0.534-1.299-0.798-2.301-0.798c-1.99,0-2.986,0.895-2.986,2.688c0,0.624,0.098,1.224,0.296,1.802l-1.663,0.363
	c-0.289-0.574-0.434-1.275-0.434-2.095c0-0.806,0.219-1.537,0.66-2.19c0.44-0.652,1.029-1.168,1.768-1.548
	c0.736-0.381,1.523-0.569,2.359-0.569C201.561,8.35,202.366,8.55,203.111,8.953"/>
<path fill="#FFFFFF" d="M217.712,9.829C218.57,10.801,219,12.268,219,14.23v2.961c0,1.718-0.135,3.262-0.4,4.628
	c-0.266,1.368-0.658,2.507-1.174,3.42h-1.756c1.064-1.823,1.596-4.515,1.596-8.07v-2.825c0-1.141-0.101-2.021-0.306-2.645
	c-0.206-0.625-0.541-1.07-1.003-1.335c-0.465-0.264-1.105-0.398-1.928-0.398c-0.82,0-1.463,0.134-1.926,0.398
	c-0.463,0.265-0.799,0.71-1.004,1.335c-0.205,0.624-0.307,1.503-0.307,2.645v2.825c0,1.672,0.155,3.22,0.467,4.64
	c0.311,1.421,0.688,2.564,1.129,3.431h-1.801c-0.427-0.836-0.796-1.988-1.107-3.454c-0.312-1.466-0.465-3-0.465-4.594v-2.985
	c0-1.96,0.434-3.424,1.299-4.389c0.863-0.963,2.104-1.446,3.715-1.446C215.625,8.372,216.854,8.858,217.712,9.829"/>
<path fill="#FFFFFF" d="M134.502,38.531c0,3.33-1.619,4.996-4.859,4.996h-3.246v6.608h-1.795V33.557h5.062
	C132.891,33.557,134.502,35.217,134.502,38.531 M131.527,41.678c0.453-0.205,0.774-0.549,0.965-1.033
	c0.189-0.483,0.283-1.188,0.283-2.112c0-0.925-0.094-1.63-0.283-2.111c-0.189-0.485-0.512-0.83-0.965-1.035
	c-0.454-0.202-1.104-0.307-1.953-0.307h-3.178v6.905h3.155C130.413,41.984,131.073,41.88,131.527,41.678"/>
<path fill="#FFFFFF" d="M137.816,46.115l-1.361,4.021h-1.908l5.949-16.579h1.705l5.949,16.579h-1.955l-1.338-4.021H137.816z
	 M141.338,35.646l-3.021,8.949h6.02L141.338,35.646z"/>
<polygon fill="#FFFFFF" points="147.242,33.557 149.262,33.557 153.531,41.891 157.801,33.557 159.754,33.557 154.327,43.686 
	154.327,50.137 152.669,50.137 152.669,43.686 "/>
</svg>
